<?xml version="1.0" encoding="utf-8" standalone="no"?>
<!DOCTYPE svg PUBLIC "-//W3C//DTD SVG 1.1//EN"
  "http://www.w3.org/Graphics/SVG/1.1/DTD/svg11.dtd">
<svg xmlns:xlink="http://www.w3.org/1999/xlink" width="673.227358pt" height="221.616989pt" viewBox="0 0 673.227358 221.616989" xmlns="http://www.w3.org/2000/svg" version="1.1">
 <metadata>
  <rdf:RDF xmlns:dc="http://purl.org/dc/elements/1.1/" xmlns:cc="http://creativecommons.org/ns#" xmlns:rdf="http://www.w3.org/1999/02/22-rdf-syntax-ns#">
   <cc:Work>
    <dc:type rdf:resource="http://purl.org/dc/dcmitype/StillImage"/>
    <dc:date>2026-09-26T18:01:34.812783</dc:date>
    <dc:format>image/svg+xml</dc:format>
    <dc:creator>
     <cc:Agent>
      <dc:title>Matplotlib v3.8.4, https://matplotlib.org/</dc:title>
     </cc:Agent>
    </dc:creator>
   </cc:Work>
  </rdf:RDF>
 </metadata>
 <defs>
  <style type="text/css">*{stroke-linejoin: round; stroke-linecap: butt}</style>
 </defs>
 <g id="figure_1">
  <g id="patch_1">
   <path d="M 0 221.616989 
L 673.227358 221.616989 
L 673.227358 0 
L 0 0 
L 0 221.616989 
z
" style="fill: none"/>
  </g>
  <g id="axes_1">
   <g id="patch_2">
    <path d="M 28.512813 185.996364 
L 328.028951 185.996364 
L 328.028951 26.16 
L 28.512813 26.16 
L 28.512813 185.996364 
z
" style="fill: none"/>
   </g>
   <g id="matplotlib.axis_1">
    <g id="xtick_1">
     <g id="line2d_1">
      <path d="M 41.033659 185.996364 
L 41.033659 26.16 
" clip-path="url(#p824e41e6f9)" style="fill: none; stroke: #9aa0a6; stroke-opacity: 0.25; stroke-width: 0.6; stroke-linecap: square"/>
     </g>
     <g id="line2d_2">
      <defs>
       <path id="m7ff84721ed" d="M 0 0 
L 0 3.5 
" style="stroke: #9aa0a6; stroke-width: 0.8"/>
      </defs>
      <g>
       <use xlink:href="#m7ff84721ed" x="41.033659" y="185.996364" style="fill: #9aa0a6; stroke: #9aa0a6; stroke-width: 0.8"/>
      </g>
     </g>
     <g id="text_1">
      <!-- 0 -->
      <g style="fill: #9aa0a6" transform="translate(38.170534 199.834957) scale(0.09 -0.09)">
       <defs>
        <path id="DejaVuSans-30" d="M 2034 4250 
Q 1547 4250 1301 3770 
Q 1056 3291 1056 2328 
Q 1056 1369 1301 889 
Q 1547 409 2034 409 
Q 2525 409 2770 889 
Q 3016 1369 3016 2328 
Q 3016 3291 2770 3770 
Q 2525 4250 2034 4250 
z
M 2034 4750 
Q 2819 4750 3233 4129 
Q 3647 3509 3647 2328 
Q 3647 1150 3233 529 
Q 2819 -91 2034 -91 
Q 1250 -91 836 529 
Q 422 1150 422 2328 
Q 422 3509 836 4129 
Q 1250 4750 2034 4750 
z
" transform="scale(0.015625)"/>
       </defs>
       <use xlink:href="#DejaVuSans-30"/>
      </g>
     </g>
    </g>
    <g id="xtick_2">
     <g id="line2d_3">
      <path d="M 95.709843 185.996364 
L 95.709843 26.16 
" clip-path="url(#p824e41e6f9)" style="fill: none; stroke: #9aa0a6; stroke-opacity: 0.25; stroke-width: 0.6; stroke-linecap: square"/>
     </g>
     <g id="line2d_4">
      <g>
       <use xlink:href="#m7ff84721ed" x="95.709843" y="185.996364" style="fill: #9aa0a6; stroke: #9aa0a6; stroke-width: 0.8"/>
      </g>
     </g>
     <g id="text_2">
      <!-- 1 -->
      <g style="fill: #9aa0a6" transform="translate(92.846718 199.834957) scale(0.09 -0.09)">
       <defs>
        <path id="DejaVuSans-31" d="M 794 531 
L 1825 531 
L 1825 4091 
L 703 3866 
L 703 4441 
L 1819 4666 
L 2450 4666 
L 2450 531 
L 3481 531 
L 3481 0 
L 794 0 
L 794 531 
z
" transform="scale(0.015625)"/>
       </defs>
       <use xlink:href="#DejaVuSans-31"/>
      </g>
     </g>
    </g>
    <g id="xtick_3">
     <g id="line2d_5">
      <path d="M 150.386028 185.996364 
L 150.386028 26.16 
" clip-path="url(#p824e41e6f9)" style="fill: none; stroke: #9aa0a6; stroke-opacity: 0.25; stroke-width: 0.6; stroke-linecap: square"/>
     </g>
     <g id="line2d_6">
      <g>
       <use xlink:href="#m7ff84721ed" x="150.386028" y="185.996364" style="fill: #9aa0a6; stroke: #9aa0a6; stroke-width: 0.8"/>
      </g>
     </g>
     <g id="text_3">
      <!-- 2 -->
      <g style="fill: #9aa0a6" transform="translate(147.522903 199.834957) scale(0.09 -0.09)">
       <defs>
        <path id="DejaVuSans-32" d="M 1228 531 
L 3431 531 
L 3431 0 
L 469 0 
L 469 531 
Q 828 903 1448 1529 
Q 2069 2156 2228 2338 
Q 2531 2678 2651 2914 
Q 2772 3150 2772 3378 
Q 2772 3750 2511 3984 
Q 2250 4219 1831 4219 
Q 1534 4219 1204 4116 
Q 875 4013 500 3803 
L 500 4441 
Q 881 4594 1212 4672 
Q 1544 4750 1819 4750 
Q 2544 4750 2975 4387 
Q 3406 4025 3406 3419 
Q 3406 3131 3298 2873 
Q 3191 2616 2906 2266 
Q 2828 2175 2409 1742 
Q 1991 1309 1228 531 
z
" transform="scale(0.015625)"/>
       </defs>
       <use xlink:href="#DejaVuSans-32"/>
      </g>
     </g>
    </g>
    <g id="xtick_4">
     <g id="line2d_7">
      <path d="M 205.062212 185.996364 
L 205.062212 26.16 
" clip-path="url(#p824e41e6f9)" style="fill: none; stroke: #9aa0a6; stroke-opacity: 0.25; stroke-width: 0.6; stroke-linecap: square"/>
     </g>
     <g id="line2d_8">
      <g>
       <use xlink:href="#m7ff84721ed" x="205.062212" y="185.996364" style="fill: #9aa0a6; stroke: #9aa0a6; stroke-width: 0.8"/>
      </g>
     </g>
     <g id="text_4">
      <!-- 3 -->
      <g style="fill: #9aa0a6" transform="translate(202.199087 199.834957) scale(0.09 -0.09)">
       <defs>
        <path id="DejaVuSans-33" d="M 2597 2516 
Q 3050 2419 3304 2112 
Q 3559 1806 3559 1356 
Q 3559 666 3084 287 
Q 2609 -91 1734 -91 
Q 1441 -91 1130 -33 
Q 819 25 488 141 
L 488 750 
Q 750 597 1062 519 
Q 1375 441 1716 441 
Q 2309 441 2620 675 
Q 2931 909 2931 1356 
Q 2931 1769 2642 2001 
Q 2353 2234 1838 2234 
L 1294 2234 
L 1294 2753 
L 1863 2753 
Q 2328 2753 2575 2939 
Q 2822 3125 2822 3475 
Q 2822 3834 2567 4026 
Q 2313 4219 1838 4219 
Q 1578 4219 1281 4162 
Q 984 4106 628 3988 
L 628 4550 
Q 988 4650 1302 4700 
Q 1616 4750 1894 4750 
Q 2613 4750 3031 4423 
Q 3450 4097 3450 3541 
Q 3450 3153 3228 2886 
Q 3006 2619 2597 2516 
z
" transform="scale(0.015625)"/>
       </defs>
       <use xlink:href="#DejaVuSans-33"/>
      </g>
     </g>
    </g>
    <g id="xtick_5">
     <g id="line2d_9">
      <path d="M 259.738397 185.996364 
L 259.738397 26.16 
" clip-path="url(#p824e41e6f9)" style="fill: none; stroke: #9aa0a6; stroke-opacity: 0.25; stroke-width: 0.6; stroke-linecap: square"/>
     </g>
     <g id="line2d_10">
      <g>
       <use xlink:href="#m7ff84721ed" x="259.738397" y="185.996364" style="fill: #9aa0a6; stroke: #9aa0a6; stroke-width: 0.8"/>
      </g>
     </g>
     <g id="text_5">
      <!-- 4 -->
      <g style="fill: #9aa0a6" transform="translate(256.875272 199.834957) scale(0.09 -0.09)">
       <defs>
        <path id="DejaVuSans-34" d="M 2419 4116 
L 825 1625 
L 2419 1625 
L 2419 4116 
z
M 2253 4666 
L 3047 4666 
L 3047 1625 
L 3713 1625 
L 3713 1100 
L 3047 1100 
L 3047 0 
L 2419 0 
L 2419 1100 
L 313 1100 
L 313 1709 
L 2253 4666 
z
" transform="scale(0.015625)"/>
       </defs>
       <use xlink:href="#DejaVuSans-34"/>
      </g>
     </g>
    </g>
    <g id="xtick_6">
     <g id="line2d_11">
      <path d="M 314.414581 185.996364 
L 314.414581 26.16 
" clip-path="url(#p824e41e6f9)" style="fill: none; stroke: #9aa0a6; stroke-opacity: 0.25; stroke-width: 0.6; stroke-linecap: square"/>
     </g>
     <g id="line2d_12">
      <g>
       <use xlink:href="#m7ff84721ed" x="314.414581" y="185.996364" style="fill: #9aa0a6; stroke: #9aa0a6; stroke-width: 0.8"/>
      </g>
     </g>
     <g id="text_6">
      <!-- 5 -->
      <g style="fill: #9aa0a6" transform="translate(311.551456 199.834957) scale(0.09 -0.09)">
       <defs>
        <path id="DejaVuSans-35" d="M 691 4666 
L 3169 4666 
L 3169 4134 
L 1269 4134 
L 1269 2991 
Q 1406 3038 1543 3061 
Q 1681 3084 1819 3084 
Q 2600 3084 3056 2656 
Q 3513 2228 3513 1497 
Q 3513 744 3044 326 
Q 2575 -91 1722 -91 
Q 1428 -91 1123 -41 
Q 819 9 494 109 
L 494 744 
Q 775 591 1075 516 
Q 1375 441 1709 441 
Q 2250 441 2565 725 
Q 2881 1009 2881 1497 
Q 2881 1984 2565 2268 
Q 2250 2553 1709 2553 
Q 1456 2553 1204 2497 
Q 953 2441 691 2322 
L 691 4666 
z
" transform="scale(0.015625)"/>
       </defs>
       <use xlink:href="#DejaVuSans-35"/>
      </g>
     </g>
    </g>
    <g id="text_7">
     <!-- x -->
     <g style="fill: #9aa0a6" transform="translate(175.607444 212.54527) scale(0.09 -0.09)">
      <defs>
       <path id="DejaVuSans-78" d="M 3513 3500 
L 2247 1797 
L 3578 0 
L 2900 0 
L 1881 1375 
L 863 0 
L 184 0 
L 1544 1831 
L 300 3500 
L 978 3500 
L 1906 2253 
L 2834 3500 
L 3513 3500 
z
" transform="scale(0.015625)"/>
      </defs>
      <use xlink:href="#DejaVuSans-78"/>
     </g>
    </g>
   </g>
   <g id="matplotlib.axis_2">
    <g id="ytick_1">
     <g id="line2d_13">
      <path d="M 28.512813 185.996364 
L 328.028951 185.996364 
" clip-path="url(#p824e41e6f9)" style="fill: none; stroke: #9aa0a6; stroke-opacity: 0.25; stroke-width: 0.6; stroke-linecap: square"/>
     </g>
     <g id="line2d_14">
      <defs>
       <path id="m72c63b1a4e" d="M 0 0 
L -3.5 0 
" style="stroke: #9aa0a6; stroke-width: 0.8"/>
      </defs>
      <g>
       <use xlink:href="#m72c63b1a4e" x="28.512813" y="185.996364" style="fill: #9aa0a6; stroke: #9aa0a6; stroke-width: 0.8"/>
      </g>
     </g>
     <g id="text_8">
      <!-- 0.0 -->
      <g style="fill: #9aa0a6" transform="translate(7.2 189.415661) scale(0.09 -0.09)">
       <defs>
        <path id="DejaVuSans-2e" d="M 684 794 
L 1344 794 
L 1344 0 
L 684 0 
L 684 794 
z
" transform="scale(0.015625)"/>
       </defs>
       <use xlink:href="#DejaVuSans-30"/>
       <use xlink:href="#DejaVuSans-2e" x="63.623047"/>
       <use xlink:href="#DejaVuSans-30" x="95.410156"/>
      </g>
     </g>
    </g>
    <g id="ytick_2">
     <g id="line2d_15">
      <path d="M 28.512813 149.669917 
L 328.028951 149.669917 
" clip-path="url(#p824e41e6f9)" style="fill: none; stroke: #9aa0a6; stroke-opacity: 0.25; stroke-width: 0.6; stroke-linecap: square"/>
     </g>
     <g id="line2d_16">
      <g>
       <use xlink:href="#m72c63b1a4e" x="28.512813" y="149.669917" style="fill: #9aa0a6; stroke: #9aa0a6; stroke-width: 0.8"/>
      </g>
     </g>
     <g id="text_9">
      <!-- 0.5 -->
      <g style="fill: #9aa0a6" transform="translate(7.2 153.089214) scale(0.09 -0.09)">
       <use xlink:href="#DejaVuSans-30"/>
       <use xlink:href="#DejaVuSans-2e" x="63.623047"/>
       <use xlink:href="#DejaVuSans-35" x="95.410156"/>
      </g>
     </g>
    </g>
    <g id="ytick_3">
     <g id="line2d_17">
      <path d="M 28.512813 113.343471 
L 328.028951 113.343471 
" clip-path="url(#p824e41e6f9)" style="fill: none; stroke: #9aa0a6; stroke-opacity: 0.25; stroke-width: 0.6; stroke-linecap: square"/>
     </g>
     <g id="line2d_18">
      <g>
       <use xlink:href="#m72c63b1a4e" x="28.512813" y="113.343471" style="fill: #9aa0a6; stroke: #9aa0a6; stroke-width: 0.8"/>
      </g>
     </g>
     <g id="text_10">
      <!-- 1.0 -->
      <g style="fill: #9aa0a6" transform="translate(7.2 116.762768) scale(0.09 -0.09)">
       <use xlink:href="#DejaVuSans-31"/>
       <use xlink:href="#DejaVuSans-2e" x="63.623047"/>
       <use xlink:href="#DejaVuSans-30" x="95.410156"/>
      </g>
     </g>
    </g>
    <g id="ytick_4">
     <g id="line2d_19">
      <path d="M 28.512813 77.017025 
L 328.028951 77.017025 
" clip-path="url(#p824e41e6f9)" style="fill: none; stroke: #9aa0a6; stroke-opacity: 0.25; stroke-width: 0.6; stroke-linecap: square"/>
     </g>
     <g id="line2d_20">
      <g>
       <use xlink:href="#m72c63b1a4e" x="28.512813" y="77.017025" style="fill: #9aa0a6; stroke: #9aa0a6; stroke-width: 0.8"/>
      </g>
     </g>
     <g id="text_11">
      <!-- 1.5 -->
      <g style="fill: #9aa0a6" transform="translate(7.2 80.436322) scale(0.09 -0.09)">
       <use xlink:href="#DejaVuSans-31"/>
       <use xlink:href="#DejaVuSans-2e" x="63.623047"/>
       <use xlink:href="#DejaVuSans-35" x="95.410156"/>
      </g>
     </g>
    </g>
    <g id="ytick_5">
     <g id="line2d_21">
      <path d="M 28.512813 40.690579 
L 328.028951 40.690579 
" clip-path="url(#p824e41e6f9)" style="fill: none; stroke: #9aa0a6; stroke-opacity: 0.25; stroke-width: 0.6; stroke-linecap: square"/>
     </g>
     <g id="line2d_22">
      <g>
       <use xlink:href="#m72c63b1a4e" x="28.512813" y="40.690579" style="fill: #9aa0a6; stroke: #9aa0a6; stroke-width: 0.8"/>
      </g>
     </g>
     <g id="text_12">
      <!-- 2.0 -->
      <g style="fill: #9aa0a6" transform="translate(7.2 44.109875) scale(0.09 -0.09)">
       <use xlink:href="#DejaVuSans-32"/>
       <use xlink:href="#DejaVuSans-2e" x="63.623047"/>
       <use xlink:href="#DejaVuSans-30" x="95.410156"/>
      </g>
     </g>
    </g>
   </g>
   <g id="line2d_23">
    <path d="M 43.48816 -1 
L 44.074875 14.040523 
L 44.853952 29.607025 
L 46.022567 47.505409 
L 47.191183 61.319434 
L 48.359798 72.483686 
L 49.528414 81.790585 
L 51.086568 92.121882 
L 52.644721 100.712615 
L 54.202875 108.008697 
L 55.761029 114.305684 
L 57.319183 119.809539 
L 59.266876 125.797607 
L 61.214568 130.988911 
L 63.16226 135.5365 
L 65.109953 139.554418 
L 67.057645 143.129873 
L 69.394876 146.931292 
L 71.732107 150.284957 
L 74.069338 153.262328 
L 76.406569 155.919967 
L 79.133338 158.676652 
L 81.860108 161.117815 
L 84.976415 163.580616 
L 88.092723 165.747462 
L 91.59857 167.886568 
L 95.104416 169.758226 
L 98.999801 171.573584 
L 103.284724 173.300664 
L 107.569647 174.791172 
L 112.244109 176.191989 
L 117.697648 177.580106 
L 123.540725 178.82633 
L 130.162879 179.995389 
L 137.56411 181.058238 
L 145.744419 181.998368 
L 155.093342 182.840787 
L 166.00042 183.588834 
L 178.855189 184.234863 
L 194.04719 184.769473 
L 213.134576 185.210008 
L 238.065039 185.550775 
L 273.123502 185.791981 
L 314.414581 185.912937 
L 314.414581 185.912937 
" clip-path="url(#p824e41e6f9)" style="fill: none; stroke: #2a9d8f; stroke-width: 1.6; stroke-linecap: square"/>
   </g>
   <g id="line2d_24">
    <path d="M 42.127182 119.656679 
L 43.295798 124.250206 
L 44.464413 128.033909 
L 46.022567 132.315768 
L 47.580721 135.996423 
L 49.528414 139.987929 
L 51.476106 143.466118 
L 53.423798 146.542677 
L 55.761029 149.80925 
L 58.09826 152.697249 
L 60.82503 155.675063 
L 63.551799 158.303702 
L 66.278568 160.64063 
L 69.394876 163.010615 
L 72.511184 165.10884 
L 76.01703 167.194706 
L 79.522877 169.033599 
L 83.418261 170.831328 
L 87.703185 172.556306 
L 92.377647 174.184621 
L 97.441647 175.699451 
L 102.895186 177.090256 
L 108.738263 178.351869 
L 115.360417 179.5479 
L 122.761648 180.647183 
L 130.941956 181.630335 
L 140.29088 182.521252 
L 150.808419 183.296691 
L 163.27365 183.984882 
L 178.076113 184.569607 
L 195.994883 185.048106 
L 218.977653 185.429468 
L 250.140732 185.710281 
L 297.274888 185.892338 
L 314.414581 185.923967 
L 314.414581 185.923967 
" clip-path="url(#p824e41e6f9)" style="fill: none; stroke: #c9a227; stroke-width: 1.6; stroke-linecap: square"/>
   </g>
   <g id="line2d_25">
    <path d="M 42.127182 151.052626 
L 44.464413 153.697725 
L 47.191183 156.403638 
L 49.917952 158.796401 
L 53.03426 161.222874 
L 56.150568 163.37726 
L 59.656414 165.528923 
L 63.551799 167.635308 
L 67.447184 169.48898 
L 71.732107 171.281145 
L 76.406569 172.986513 
L 81.470569 174.586257 
L 86.924108 176.067466 
L 92.767185 177.422486 
L 99.389339 178.71818 
L 106.401032 179.862124 
L 114.191802 180.910304 
L 123.151187 181.884092 
L 133.279187 182.751611 
L 144.965342 183.518441 
L 158.599188 184.179263 
L 174.959805 184.737372 
L 195.215806 185.19167 
L 221.314884 185.540266 
L 257.541963 185.786183 
L 314.414581 185.932589 
L 314.414581 185.932589 
" clip-path="url(#p824e41e6f9)" style="fill: none; stroke: #c0392b; stroke-width: 1.6; stroke-linecap: square"/>
   </g>
   <g id="line2d_26">
    <path d="M 42.127182 162.491232 
L 45.633029 164.604513 
L 49.528414 166.689061 
L 53.813337 168.712688 
L 58.09826 170.496747 
L 62.772722 172.210139 
L 67.836722 173.832305 
L 73.290261 175.348006 
L 79.133338 176.746966 
L 85.755492 178.096608 
L 92.767185 179.298713 
L 100.557955 180.409695 
L 109.127801 181.410147 
L 118.866263 182.322458 
L 130.162879 183.14783 
L 143.017649 183.857064 
L 158.20965 184.465381 
L 176.517959 184.968577 
L 199.500729 185.369307 
L 230.274269 185.669939 
L 275.460733 185.869379 
L 314.414581 185.939478 
L 314.414581 185.939478 
" clip-path="url(#p824e41e6f9)" style="fill: none; stroke: #4a7fb5; stroke-width: 1.6; stroke-linecap: square"/>
   </g>
   <g id="line2d_27">
    <path d="M 42.127182 168.310322 
L 46.801644 170.198608 
L 51.865644 171.997458 
L 57.319183 173.688918 
L 63.16226 175.259978 
L 69.394876 176.70234 
L 76.01703 178.011981 
L 83.418261 179.248368 
L 91.59857 180.384184 
L 100.557955 181.401967 
L 110.685955 182.324882 
L 122.37211 183.155421 
L 135.616418 183.866455 
L 151.197957 184.473986 
L 169.895804 184.975022 
L 193.657652 185.378215 
L 225.210269 185.676677 
L 271.565348 185.873519 
L 314.414581 185.945088 
L 314.414581 185.945088 
" clip-path="url(#p824e41e6f9)" style="fill: none; stroke: #8e6bb5; stroke-width: 1.6; stroke-linecap: square"/>
   </g>
   <g id="patch_3">
    <path d="M 28.512813 185.996364 
L 28.512813 26.16 
" style="fill: none; stroke: #9aa0a6; stroke-width: 0.8; stroke-linejoin: miter; stroke-linecap: square"/>
   </g>
   <g id="patch_4">
    <path d="M 328.028951 185.996364 
L 328.028951 26.16 
" style="fill: none; stroke: #9aa0a6; stroke-width: 0.8; stroke-linejoin: miter; stroke-linecap: square"/>
   </g>
   <g id="patch_5">
    <path d="M 28.512813 185.996364 
L 328.028951 185.996364 
" style="fill: none; stroke: #9aa0a6; stroke-width: 0.8; stroke-linejoin: miter; stroke-linecap: square"/>
   </g>
   <g id="patch_6">
    <path d="M 28.512813 26.16 
L 328.028951 26.16 
" style="fill: none; stroke: #9aa0a6; stroke-width: 0.8; stroke-linejoin: miter; stroke-linecap: square"/>
   </g>
   <g id="text_13">
    <!-- $E_n(x)=\int_1^\infty e^{-xt}t^{-n}dt$ -->
    <g style="fill: #9aa0a6" transform="translate(126.052882 20.16) scale(0.108 -0.108)">
     <defs>
      <path id="DejaVuSans-Oblique-45" d="M 1081 4666 
L 4031 4666 
L 3928 4134 
L 1606 4134 
L 1338 2753 
L 3566 2753 
L 3463 2222 
L 1234 2222 
L 909 531 
L 3284 531 
L 3181 0 
L 172 0 
L 1081 4666 
z
" transform="scale(0.015625)"/>
      <path id="DejaVuSans-Oblique-6e" d="M 3566 2113 
L 3156 0 
L 2578 0 
L 2988 2091 
Q 3016 2238 3031 2350 
Q 3047 2463 3047 2528 
Q 3047 2791 2881 2937 
Q 2716 3084 2419 3084 
Q 1956 3084 1622 2776 
Q 1288 2469 1184 1941 
L 800 0 
L 225 0 
L 903 3500 
L 1478 3500 
L 1363 2950 
Q 1603 3253 1940 3418 
Q 2278 3584 2650 3584 
Q 3113 3584 3367 3334 
Q 3622 3084 3622 2631 
Q 3622 2519 3608 2391 
Q 3594 2263 3566 2113 
z
" transform="scale(0.015625)"/>
      <path id="DejaVuSans-28" d="M 1984 4856 
Q 1566 4138 1362 3434 
Q 1159 2731 1159 2009 
Q 1159 1288 1364 580 
Q 1569 -128 1984 -844 
L 1484 -844 
Q 1016 -109 783 600 
Q 550 1309 550 2009 
Q 550 2706 781 3412 
Q 1013 4119 1484 4856 
L 1984 4856 
z
" transform="scale(0.015625)"/>
      <path id="DejaVuSans-Oblique-78" d="M 3841 3500 
L 2234 1784 
L 3219 0 
L 2559 0 
L 1819 1388 
L 531 0 
L -166 0 
L 1556 1844 
L 641 3500 
L 1300 3500 
L 1972 2234 
L 3144 3500 
L 3841 3500 
z
" transform="scale(0.015625)"/>
      <path id="DejaVuSans-29" d="M 513 4856 
L 1013 4856 
Q 1481 4119 1714 3412 
Q 1947 2706 1947 2009 
Q 1947 1309 1714 600 
Q 1481 -109 1013 -844 
L 513 -844 
Q 928 -128 1133 580 
Q 1338 1288 1338 2009 
Q 1338 2731 1133 3434 
Q 928 4138 513 4856 
z
" transform="scale(0.015625)"/>
      <path id="DejaVuSans-3d" d="M 678 2906 
L 4684 2906 
L 4684 2381 
L 678 2381 
L 678 2906 
z
M 678 1631 
L 4684 1631 
L 4684 1100 
L 678 1100 
L 678 1631 
z
" transform="scale(0.015625)"/>
      <path id="DejaVuSansDisplay-222b" d="M 2134 5525 
Q 2172 6263 2528 6556 
Q 2884 6850 3218 6850 
Q 3553 6850 3833 6575 
Q 4113 6300 4200 5678 
L 3544 5613 
Q 3469 6188 3219 6188 
Q 2906 6188 2869 5413 
L 2581 -597 
Q 2547 -1334 2187 -1628 
Q 1828 -1922 1497 -1922 
Q 1163 -1922 883 -1647 
Q 603 -1372 516 -750 
L 1172 -684 
Q 1247 -1259 1497 -1259 
Q 1809 -1259 1847 -488 
L 2134 5525 
z
" transform="scale(0.015625)"/>
      <path id="DejaVuSans-221e" d="M 2916 1091 
Q 2819 1203 2666 1466 
Q 2456 1091 2272 925 
Q 2041 725 1681 725 
Q 1259 725 981 1041 
Q 688 1372 688 1919 
Q 688 2444 981 2800 
Q 1244 3116 1688 3116 
Q 1916 3116 2084 3022 
Q 2281 2919 2416 2741 
Q 2541 2581 2666 2366 
Q 2875 2741 3059 2906 
Q 3291 3106 3650 3106 
Q 4072 3106 4350 2791 
Q 4644 2459 4644 1913 
Q 4644 1388 4350 1031 
Q 4088 716 3644 716 
Q 3416 716 3247 809 
Q 3078 894 2916 1091 
z
M 1647 1134 
Q 2163 1134 2472 1884 
Q 2075 2703 1647 2703 
Q 1334 2703 1175 2478 
Q 1003 2238 1003 1919 
Q 1003 1569 1175 1353 
Q 1350 1134 1647 1134 
z
M 3684 2697 
Q 3219 2697 2859 1947 
Q 3253 1128 3684 1128 
Q 3997 1128 4156 1353 
Q 4328 1594 4328 1913 
Q 4328 2263 4156 2478 
Q 3981 2697 3684 2697 
z
" transform="scale(0.015625)"/>
      <path id="DejaVuSans-Oblique-65" d="M 3078 2063 
Q 3088 2113 3092 2166 
Q 3097 2219 3097 2272 
Q 3097 2653 2873 2875 
Q 2650 3097 2266 3097 
Q 1838 3097 1509 2826 
Q 1181 2556 1013 2059 
L 3078 2063 
z
M 3578 1613 
L 903 1613 
Q 884 1494 878 1425 
Q 872 1356 872 1306 
Q 872 872 1139 634 
Q 1406 397 1894 397 
Q 2269 397 2603 481 
Q 2938 566 3225 728 
L 3116 159 
Q 2806 34 2476 -28 
Q 2147 -91 1806 -91 
Q 1078 -91 686 257 
Q 294 606 294 1247 
Q 294 1794 489 2264 
Q 684 2734 1063 3103 
Q 1306 3334 1642 3459 
Q 1978 3584 2356 3584 
Q 2950 3584 3301 3228 
Q 3653 2872 3653 2272 
Q 3653 2128 3634 1964 
Q 3616 1800 3578 1613 
z
" transform="scale(0.015625)"/>
      <path id="DejaVuSans-2212" d="M 678 2272 
L 4684 2272 
L 4684 1741 
L 678 1741 
L 678 2272 
z
" transform="scale(0.015625)"/>
      <path id="DejaVuSans-Oblique-74" d="M 2706 3500 
L 2619 3053 
L 1472 3053 
L 1100 1153 
Q 1081 1047 1072 975 
Q 1063 903 1063 863 
Q 1063 663 1183 572 
Q 1303 481 1569 481 
L 2150 481 
L 2053 0 
L 1503 0 
Q 991 0 739 200 
Q 488 400 488 806 
Q 488 878 497 964 
Q 506 1050 525 1153 
L 897 3053 
L 409 3053 
L 500 3500 
L 978 3500 
L 1172 4494 
L 1747 4494 
L 1556 3500 
L 2706 3500 
z
" transform="scale(0.015625)"/>
      <path id="DejaVuSans-Oblique-64" d="M 2675 525 
Q 2444 222 2128 65 
Q 1813 -91 1428 -91 
Q 903 -91 598 267 
Q 294 625 294 1247 
Q 294 1766 478 2236 
Q 663 2706 1013 3078 
Q 1244 3325 1534 3454 
Q 1825 3584 2144 3584 
Q 2481 3584 2739 3421 
Q 2997 3259 3138 2956 
L 3513 4863 
L 4091 4863 
L 3144 0 
L 2566 0 
L 2675 525 
z
M 891 1350 
Q 891 897 1095 644 
Q 1300 391 1663 391 
Q 1931 391 2161 520 
Q 2391 650 2566 903 
Q 2750 1166 2856 1509 
Q 2963 1853 2963 2188 
Q 2963 2622 2758 2865 
Q 2553 3109 2194 3109 
Q 1922 3109 1687 2981 
Q 1453 2853 1288 2613 
Q 1106 2353 998 2009 
Q 891 1666 891 1350 
z
" transform="scale(0.015625)"/>
     </defs>
     <use xlink:href="#DejaVuSans-Oblique-45" transform="translate(0 0.7625)"/>
     <use xlink:href="#DejaVuSans-Oblique-6e" transform="translate(63.183594 -15.64375) scale(0.7)"/>
     <use xlink:href="#DejaVuSans-28" transform="translate(110.283203 0.7625)"/>
     <use xlink:href="#DejaVuSans-Oblique-78" transform="translate(149.296875 0.7625)"/>
     <use xlink:href="#DejaVuSans-29" transform="translate(208.476562 0.7625)"/>
     <use xlink:href="#DejaVuSans-3d" transform="translate(266.972656 0.7625)"/>
     <use xlink:href="#DejaVuSansDisplay-222b" transform="translate(370.244141 0.7625)"/>
     <use xlink:href="#DejaVuSans-221e" transform="translate(456.988281 85.91875) scale(0.7)"/>
     <use xlink:href="#DejaVuSans-31" transform="translate(442.003906 -51.14375) scale(0.7)"/>
     <use xlink:href="#DejaVuSans-Oblique-65" transform="translate(515.298828 0.7625)"/>
     <use xlink:href="#DejaVuSans-2212" transform="translate(581.472161 39.04375) scale(0.7)"/>
     <use xlink:href="#DejaVuSans-Oblique-78" transform="translate(640.124505 39.04375) scale(0.7)"/>
     <use xlink:href="#DejaVuSans-Oblique-74" transform="translate(681.550286 39.04375) scale(0.7)"/>
     <use xlink:href="#DejaVuSans-Oblique-74" transform="translate(711.730951 0.7625)"/>
     <use xlink:href="#DejaVuSans-2212" transform="translate(757.580456 39.04375) scale(0.7)"/>
     <use xlink:href="#DejaVuSans-Oblique-6e" transform="translate(816.232799 39.04375) scale(0.7)"/>
     <use xlink:href="#DejaVuSans-Oblique-64" transform="translate(863.332409 0.7625)"/>
     <use xlink:href="#DejaVuSans-Oblique-74" transform="translate(926.808971 0.7625)"/>
    </g>
   </g>
   <g id="legend_1">
    <g id="line2d_28">
     <path d="M 194.988951 36.63875 
L 202.988951 36.63875 
L 210.988951 36.63875 
" style="fill: none; stroke: #2a9d8f; stroke-width: 1.6; stroke-linecap: square"/>
    </g>
    <g id="text_14">
     <!-- $E_1$ -->
     <g style="fill: #9aa0a6" transform="translate(217.388951 39.43875) scale(0.08 -0.08)">
      <use xlink:href="#DejaVuSans-Oblique-45" transform="translate(0 0.09375)"/>
      <use xlink:href="#DejaVuSans-31" transform="translate(63.183594 -16.3125) scale(0.7)"/>
     </g>
    </g>
    <g id="line2d_29">
     <path d="M 194.988951 48.38125 
L 202.988951 48.38125 
L 210.988951 48.38125 
" style="fill: none; stroke: #c9a227; stroke-width: 1.6; stroke-linecap: square"/>
    </g>
    <g id="text_15">
     <!-- $E_2$ -->
     <g style="fill: #9aa0a6" transform="translate(217.388951 51.18125) scale(0.08 -0.08)">
      <use xlink:href="#DejaVuSans-Oblique-45" transform="translate(0 0.09375)"/>
      <use xlink:href="#DejaVuSans-32" transform="translate(63.183594 -16.3125) scale(0.7)"/>
     </g>
    </g>
    <g id="line2d_30">
     <path d="M 242.268951 36.63875 
L 250.268951 36.63875 
L 258.268951 36.63875 
" style="fill: none; stroke: #c0392b; stroke-width: 1.6; stroke-linecap: square"/>
    </g>
    <g id="text_16">
     <!-- $E_3$ -->
     <g style="fill: #9aa0a6" transform="translate(264.668951 39.43875) scale(0.08 -0.08)">
      <use xlink:href="#DejaVuSans-Oblique-45" transform="translate(0 0.09375)"/>
      <use xlink:href="#DejaVuSans-33" transform="translate(63.183594 -16.3125) scale(0.7)"/>
     </g>
    </g>
    <g id="line2d_31">
     <path d="M 242.268951 48.38125 
L 250.268951 48.38125 
L 258.268951 48.38125 
" style="fill: none; stroke: #4a7fb5; stroke-width: 1.6; stroke-linecap: square"/>
    </g>
    <g id="text_17">
     <!-- $E_4$ -->
     <g style="fill: #9aa0a6" transform="translate(264.668951 51.18125) scale(0.08 -0.08)">
      <use xlink:href="#DejaVuSans-Oblique-45" transform="translate(0 0.09375)"/>
      <use xlink:href="#DejaVuSans-34" transform="translate(63.183594 -16.3125) scale(0.7)"/>
     </g>
    </g>
    <g id="line2d_32">
     <path d="M 289.548951 36.63875 
L 297.548951 36.63875 
L 305.548951 36.63875 
" style="fill: none; stroke: #8e6bb5; stroke-width: 1.6; stroke-linecap: square"/>
    </g>
    <g id="text_18">
     <!-- $E_5$ -->
     <g style="fill: #9aa0a6" transform="translate(311.948951 39.43875) scale(0.08 -0.08)">
      <use xlink:href="#DejaVuSans-Oblique-45" transform="translate(0 0.09375)"/>
      <use xlink:href="#DejaVuSans-35" transform="translate(63.183594 -16.3125) scale(0.7)"/>
     </g>
    </g>
   </g>
  </g>
  <g id="axes_2">
   <g id="patch_7">
    <path d="M 366.511219 185.996364 
L 666.027358 185.996364 
L 666.027358 26.16 
L 366.511219 26.16 
L 366.511219 185.996364 
z
" style="fill: none"/>
   </g>
   <g id="matplotlib.axis_3">
    <g id="xtick_7">
     <g id="line2d_33">
      <path d="M 379.671019 185.996364 
L 379.671019 26.16 
" clip-path="url(#pb2972a4ef6)" style="fill: none; stroke: #9aa0a6; stroke-opacity: 0.25; stroke-width: 0.6; stroke-linecap: square"/>
     </g>
     <g id="line2d_34">
      <g>
       <use xlink:href="#m7ff84721ed" x="379.671019" y="185.996364" style="fill: #9aa0a6; stroke: #9aa0a6; stroke-width: 0.8"/>
      </g>
     </g>
     <g id="text_19">
      <!-- 0 -->
      <g style="fill: #9aa0a6" transform="translate(376.807894 199.834957) scale(0.09 -0.09)">
       <use xlink:href="#DejaVuSans-30"/>
      </g>
     </g>
    </g>
    <g id="xtick_8">
     <g id="line2d_35">
      <path d="M 425.128014 185.996364 
L 425.128014 26.16 
" clip-path="url(#pb2972a4ef6)" style="fill: none; stroke: #9aa0a6; stroke-opacity: 0.25; stroke-width: 0.6; stroke-linecap: square"/>
     </g>
     <g id="line2d_36">
      <g>
       <use xlink:href="#m7ff84721ed" x="425.128014" y="185.996364" style="fill: #9aa0a6; stroke: #9aa0a6; stroke-width: 0.8"/>
      </g>
     </g>
     <g id="text_20">
      <!-- 2 -->
      <g style="fill: #9aa0a6" transform="translate(422.264889 199.834957) scale(0.09 -0.09)">
       <use xlink:href="#DejaVuSans-32"/>
      </g>
     </g>
    </g>
    <g id="xtick_9">
     <g id="line2d_37">
      <path d="M 470.585009 185.996364 
L 470.585009 26.16 
" clip-path="url(#pb2972a4ef6)" style="fill: none; stroke: #9aa0a6; stroke-opacity: 0.25; stroke-width: 0.6; stroke-linecap: square"/>
     </g>
     <g id="line2d_38">
      <g>
       <use xlink:href="#m7ff84721ed" x="470.585009" y="185.996364" style="fill: #9aa0a6; stroke: #9aa0a6; stroke-width: 0.8"/>
      </g>
     </g>
     <g id="text_21">
      <!-- 4 -->
      <g style="fill: #9aa0a6" transform="translate(467.721884 199.834957) scale(0.09 -0.09)">
       <use xlink:href="#DejaVuSans-34"/>
      </g>
     </g>
    </g>
    <g id="xtick_10">
     <g id="line2d_39">
      <path d="M 516.042004 185.996364 
L 516.042004 26.16 
" clip-path="url(#pb2972a4ef6)" style="fill: none; stroke: #9aa0a6; stroke-opacity: 0.25; stroke-width: 0.6; stroke-linecap: square"/>
     </g>
     <g id="line2d_40">
      <g>
       <use xlink:href="#m7ff84721ed" x="516.042004" y="185.996364" style="fill: #9aa0a6; stroke: #9aa0a6; stroke-width: 0.8"/>
      </g>
     </g>
     <g id="text_22">
      <!-- 6 -->
      <g style="fill: #9aa0a6" transform="translate(513.178879 199.834957) scale(0.09 -0.09)">
       <defs>
        <path id="DejaVuSans-36" d="M 2113 2584 
Q 1688 2584 1439 2293 
Q 1191 2003 1191 1497 
Q 1191 994 1439 701 
Q 1688 409 2113 409 
Q 2538 409 2786 701 
Q 3034 994 3034 1497 
Q 3034 2003 2786 2293 
Q 2538 2584 2113 2584 
z
M 3366 4563 
L 3366 3988 
Q 3128 4100 2886 4159 
Q 2644 4219 2406 4219 
Q 1781 4219 1451 3797 
Q 1122 3375 1075 2522 
Q 1259 2794 1537 2939 
Q 1816 3084 2150 3084 
Q 2853 3084 3261 2657 
Q 3669 2231 3669 1497 
Q 3669 778 3244 343 
Q 2819 -91 2113 -91 
Q 1303 -91 875 529 
Q 447 1150 447 2328 
Q 447 3434 972 4092 
Q 1497 4750 2381 4750 
Q 2619 4750 2861 4703 
Q 3103 4656 3366 4563 
z
" transform="scale(0.015625)"/>
       </defs>
       <use xlink:href="#DejaVuSans-36"/>
      </g>
     </g>
    </g>
    <g id="xtick_11">
     <g id="line2d_41">
      <path d="M 561.498998 185.996364 
L 561.498998 26.16 
" clip-path="url(#pb2972a4ef6)" style="fill: none; stroke: #9aa0a6; stroke-opacity: 0.25; stroke-width: 0.6; stroke-linecap: square"/>
     </g>
     <g id="line2d_42">
      <g>
       <use xlink:href="#m7ff84721ed" x="561.498998" y="185.996364" style="fill: #9aa0a6; stroke: #9aa0a6; stroke-width: 0.8"/>
      </g>
     </g>
     <g id="text_23">
      <!-- 8 -->
      <g style="fill: #9aa0a6" transform="translate(558.635873 199.834957) scale(0.09 -0.09)">
       <defs>
        <path id="DejaVuSans-38" d="M 2034 2216 
Q 1584 2216 1326 1975 
Q 1069 1734 1069 1313 
Q 1069 891 1326 650 
Q 1584 409 2034 409 
Q 2484 409 2743 651 
Q 3003 894 3003 1313 
Q 3003 1734 2745 1975 
Q 2488 2216 2034 2216 
z
M 1403 2484 
Q 997 2584 770 2862 
Q 544 3141 544 3541 
Q 544 4100 942 4425 
Q 1341 4750 2034 4750 
Q 2731 4750 3128 4425 
Q 3525 4100 3525 3541 
Q 3525 3141 3298 2862 
Q 3072 2584 2669 2484 
Q 3125 2378 3379 2068 
Q 3634 1759 3634 1313 
Q 3634 634 3220 271 
Q 2806 -91 2034 -91 
Q 1263 -91 848 271 
Q 434 634 434 1313 
Q 434 1759 690 2068 
Q 947 2378 1403 2484 
z
M 1172 3481 
Q 1172 3119 1398 2916 
Q 1625 2713 2034 2713 
Q 2441 2713 2670 2916 
Q 2900 3119 2900 3481 
Q 2900 3844 2670 4047 
Q 2441 4250 2034 4250 
Q 1625 4250 1398 4047 
Q 1172 3844 1172 3481 
z
" transform="scale(0.015625)"/>
       </defs>
       <use xlink:href="#DejaVuSans-38"/>
      </g>
     </g>
    </g>
    <g id="xtick_12">
     <g id="line2d_43">
      <path d="M 606.955993 185.996364 
L 606.955993 26.16 
" clip-path="url(#pb2972a4ef6)" style="fill: none; stroke: #9aa0a6; stroke-opacity: 0.25; stroke-width: 0.6; stroke-linecap: square"/>
     </g>
     <g id="line2d_44">
      <g>
       <use xlink:href="#m7ff84721ed" x="606.955993" y="185.996364" style="fill: #9aa0a6; stroke: #9aa0a6; stroke-width: 0.8"/>
      </g>
     </g>
     <g id="text_24">
      <!-- 10 -->
      <g style="fill: #9aa0a6" transform="translate(601.229743 199.834957) scale(0.09 -0.09)">
       <use xlink:href="#DejaVuSans-31"/>
       <use xlink:href="#DejaVuSans-30" x="63.623047"/>
      </g>
     </g>
    </g>
    <g id="xtick_13">
     <g id="line2d_45">
      <path d="M 652.412988 185.996364 
L 652.412988 26.16 
" clip-path="url(#pb2972a4ef6)" style="fill: none; stroke: #9aa0a6; stroke-opacity: 0.25; stroke-width: 0.6; stroke-linecap: square"/>
     </g>
     <g id="line2d_46">
      <g>
       <use xlink:href="#m7ff84721ed" x="652.412988" y="185.996364" style="fill: #9aa0a6; stroke: #9aa0a6; stroke-width: 0.8"/>
      </g>
     </g>
     <g id="text_25">
      <!-- 12 -->
      <g style="fill: #9aa0a6" transform="translate(646.686738 199.834957) scale(0.09 -0.09)">
       <use xlink:href="#DejaVuSans-31"/>
       <use xlink:href="#DejaVuSans-32" x="63.623047"/>
      </g>
     </g>
    </g>
    <g id="text_26">
     <!-- x -->
     <g style="fill: #9aa0a6" transform="translate(513.605851 212.54527) scale(0.09 -0.09)">
      <use xlink:href="#DejaVuSans-78"/>
     </g>
    </g>
   </g>
   <g id="matplotlib.axis_4">
    <g id="ytick_6">
     <g id="line2d_47">
      <path d="M 366.511219 185.996364 
L 666.027358 185.996364 
" clip-path="url(#pb2972a4ef6)" style="fill: none; stroke: #9aa0a6; stroke-opacity: 0.25; stroke-width: 0.6; stroke-linecap: square"/>
     </g>
     <g id="line2d_48">
      <g>
       <use xlink:href="#m72c63b1a4e" x="366.511219" y="185.996364" style="fill: #9aa0a6; stroke: #9aa0a6; stroke-width: 0.8"/>
      </g>
     </g>
     <g id="text_27">
      <!-- $\mathdefault{10^{-8}}$ -->
      <g style="fill: #9aa0a6" transform="translate(338.361219 189.415661) scale(0.09 -0.09)">
       <use xlink:href="#DejaVuSans-31" transform="translate(0 0.765625)"/>
       <use xlink:href="#DejaVuSans-30" transform="translate(63.623047 0.765625)"/>
       <use xlink:href="#DejaVuSans-2212" transform="translate(128.203125 39.046875) scale(0.7)"/>
       <use xlink:href="#DejaVuSans-38" transform="translate(186.855469 39.046875) scale(0.7)"/>
      </g>
     </g>
    </g>
    <g id="ytick_7">
     <g id="line2d_49">
      <path d="M 366.511219 154.029091 
L 666.027358 154.029091 
" clip-path="url(#pb2972a4ef6)" style="fill: none; stroke: #9aa0a6; stroke-opacity: 0.25; stroke-width: 0.6; stroke-linecap: square"/>
     </g>
     <g id="line2d_50">
      <g>
       <use xlink:href="#m72c63b1a4e" x="366.511219" y="154.029091" style="fill: #9aa0a6; stroke: #9aa0a6; stroke-width: 0.8"/>
      </g>
     </g>
     <g id="text_28">
      <!-- $\mathdefault{10^{-6}}$ -->
      <g style="fill: #9aa0a6" transform="translate(338.361219 157.448388) scale(0.09 -0.09)">
       <use xlink:href="#DejaVuSans-31" transform="translate(0 0.765625)"/>
       <use xlink:href="#DejaVuSans-30" transform="translate(63.623047 0.765625)"/>
       <use xlink:href="#DejaVuSans-2212" transform="translate(128.203125 39.046875) scale(0.7)"/>
       <use xlink:href="#DejaVuSans-36" transform="translate(186.855469 39.046875) scale(0.7)"/>
      </g>
     </g>
    </g>
    <g id="ytick_8">
     <g id="line2d_51">
      <path d="M 366.511219 122.061818 
L 666.027358 122.061818 
" clip-path="url(#pb2972a4ef6)" style="fill: none; stroke: #9aa0a6; stroke-opacity: 0.25; stroke-width: 0.6; stroke-linecap: square"/>
     </g>
     <g id="line2d_52">
      <g>
       <use xlink:href="#m72c63b1a4e" x="366.511219" y="122.061818" style="fill: #9aa0a6; stroke: #9aa0a6; stroke-width: 0.8"/>
      </g>
     </g>
     <g id="text_29">
      <!-- $\mathdefault{10^{-4}}$ -->
      <g style="fill: #9aa0a6" transform="translate(338.361219 125.481115) scale(0.09 -0.09)">
       <use xlink:href="#DejaVuSans-31" transform="translate(0 0.684375)"/>
       <use xlink:href="#DejaVuSans-30" transform="translate(63.623047 0.684375)"/>
       <use xlink:href="#DejaVuSans-2212" transform="translate(128.203125 38.965625) scale(0.7)"/>
       <use xlink:href="#DejaVuSans-34" transform="translate(186.855469 38.965625) scale(0.7)"/>
      </g>
     </g>
    </g>
    <g id="ytick_9">
     <g id="line2d_53">
      <path d="M 366.511219 90.094545 
L 666.027358 90.094545 
" clip-path="url(#pb2972a4ef6)" style="fill: none; stroke: #9aa0a6; stroke-opacity: 0.25; stroke-width: 0.6; stroke-linecap: square"/>
     </g>
     <g id="line2d_54">
      <g>
       <use xlink:href="#m72c63b1a4e" x="366.511219" y="90.094545" style="fill: #9aa0a6; stroke: #9aa0a6; stroke-width: 0.8"/>
      </g>
     </g>
     <g id="text_30">
      <!-- $\mathdefault{10^{-2}}$ -->
      <g style="fill: #9aa0a6" transform="translate(338.361219 93.513842) scale(0.09 -0.09)">
       <use xlink:href="#DejaVuSans-31" transform="translate(0 0.765625)"/>
       <use xlink:href="#DejaVuSans-30" transform="translate(63.623047 0.765625)"/>
       <use xlink:href="#DejaVuSans-2212" transform="translate(128.203125 39.046875) scale(0.7)"/>
       <use xlink:href="#DejaVuSans-32" transform="translate(186.855469 39.046875) scale(0.7)"/>
      </g>
     </g>
    </g>
    <g id="ytick_10">
     <g id="line2d_55">
      <path d="M 366.511219 58.127273 
L 666.027358 58.127273 
" clip-path="url(#pb2972a4ef6)" style="fill: none; stroke: #9aa0a6; stroke-opacity: 0.25; stroke-width: 0.6; stroke-linecap: square"/>
     </g>
     <g id="line2d_56">
      <g>
       <use xlink:href="#m72c63b1a4e" x="366.511219" y="58.127273" style="fill: #9aa0a6; stroke: #9aa0a6; stroke-width: 0.8"/>
      </g>
     </g>
     <g id="text_31">
      <!-- $\mathdefault{10^{0}}$ -->
      <g style="fill: #9aa0a6" transform="translate(343.671219 61.54657) scale(0.09 -0.09)">
       <use xlink:href="#DejaVuSans-31" transform="translate(0 0.765625)"/>
       <use xlink:href="#DejaVuSans-30" transform="translate(63.623047 0.765625)"/>
       <use xlink:href="#DejaVuSans-30" transform="translate(128.203125 39.046875) scale(0.7)"/>
      </g>
     </g>
    </g>
    <g id="ytick_11">
     <g id="line2d_57">
      <path d="M 366.511219 26.16 
L 666.027358 26.16 
" clip-path="url(#pb2972a4ef6)" style="fill: none; stroke: #9aa0a6; stroke-opacity: 0.25; stroke-width: 0.6; stroke-linecap: square"/>
     </g>
     <g id="line2d_58">
      <g>
       <use xlink:href="#m72c63b1a4e" x="366.511219" y="26.16" style="fill: #9aa0a6; stroke: #9aa0a6; stroke-width: 0.8"/>
      </g>
     </g>
     <g id="text_32">
      <!-- $\mathdefault{10^{2}}$ -->
      <g style="fill: #9aa0a6" transform="translate(343.671219 29.579297) scale(0.09 -0.09)">
       <use xlink:href="#DejaVuSans-31" transform="translate(0 0.765625)"/>
       <use xlink:href="#DejaVuSans-30" transform="translate(63.623047 0.765625)"/>
       <use xlink:href="#DejaVuSans-32" transform="translate(128.203125 39.046875) scale(0.7)"/>
      </g>
     </g>
    </g>
   </g>
   <g id="line2d_59">
    <path d="M 380.125589 49.725399 
L 380.904666 52.079159 
L 381.683743 53.550281 
L 382.852359 55.201035 
L 384.410513 56.927847 
L 386.358205 58.705093 
L 388.695436 60.530717 
L 391.811744 62.661825 
L 395.707129 65.031654 
L 400.38159 67.608114 
L 406.224668 70.567638 
L 413.625899 74.046893 
L 422.585284 77.99496 
L 433.492361 82.543497 
L 446.73667 87.81187 
L 462.707747 93.913652 
L 481.795133 100.96038 
L 504.777904 109.201552 
L 532.435136 118.875339 
L 565.545907 130.214352 
L 605.278832 143.579199 
L 652.412988 159.195122 
L 652.412988 159.195122 
" clip-path="url(#pb2972a4ef6)" style="fill: none; stroke: #2a9d8f; stroke-width: 1.7; stroke-linecap: square"/>
   </g>
   <g id="line2d_60">
    <path d="M 380.125589 31.110386 
L 380.515128 35.525718 
L 381.294205 40.302531 
L 382.073282 43.261723 
L 382.852359 45.449501 
L 384.020974 47.978185 
L 385.18959 49.986875 
L 386.747744 52.189081 
L 388.695436 54.471596 
L 391.032667 56.784138 
L 393.759436 59.110137 
L 396.875744 61.44905 
L 400.38159 63.807177 
L 404.666514 66.421231 
L 409.730514 69.248457 
L 415.96313 72.459935 
L 423.364361 76.008706 
L 432.323746 80.039793 
L 442.841285 84.516174 
L 455.306516 89.57336 
L 470.108979 95.334972 
L 488.027749 102.062416 
L 509.452365 109.858218 
L 534.772367 118.828491 
L 565.156368 129.350029 
L 601.383447 141.652711 
L 644.622218 156.095191 
L 652.412988 158.675774 
L 652.412988 158.675774 
" clip-path="url(#pb2972a4ef6)" style="fill: none; stroke-dasharray: 4.44,1.92; stroke-dashoffset: 0; stroke: #4a7fb5; stroke-width: 1.2"/>
   </g>
   <g id="patch_8">
    <path d="M 366.511219 185.996364 
L 366.511219 26.16 
" style="fill: none; stroke: #9aa0a6; stroke-width: 0.8; stroke-linejoin: miter; stroke-linecap: square"/>
   </g>
   <g id="patch_9">
    <path d="M 666.027358 185.996364 
L 666.027358 26.16 
" style="fill: none; stroke: #9aa0a6; stroke-width: 0.8; stroke-linejoin: miter; stroke-linecap: square"/>
   </g>
   <g id="patch_10">
    <path d="M 366.511219 185.996364 
L 666.027358 185.996364 
" style="fill: none; stroke: #9aa0a6; stroke-width: 0.8; stroke-linejoin: miter; stroke-linecap: square"/>
   </g>
   <g id="patch_11">
    <path d="M 366.511219 26.16 
L 666.027358 26.16 
" style="fill: none; stroke: #9aa0a6; stroke-width: 0.8; stroke-linejoin: miter; stroke-linecap: square"/>
   </g>
   <g id="text_33">
    <!-- $E_1(x)\sim e^{-x}/x$ for large $x$ -->
    <g style="fill: #9aa0a6" transform="translate(452.549289 20.16) scale(0.108 -0.108)">
     <defs>
      <path id="DejaVuSans-223c" d="M 4684 2556 
L 4684 1997 
Q 4356 1753 4076 1645 
Q 3797 1538 3494 1538 
Q 3150 1538 2694 1722 
Q 2663 1734 2641 1744 
Q 2622 1750 2575 1769 
Q 2091 1959 1797 1959 
Q 1522 1959 1253 1840 
Q 984 1722 678 1459 
L 678 2019 
Q 1006 2263 1286 2370 
Q 1566 2478 1869 2478 
Q 2213 2478 2672 2294 
Q 2706 2278 2722 2272 
Q 2741 2266 2788 2247 
Q 3272 2056 3566 2056 
Q 3834 2056 4098 2173 
Q 4363 2291 4684 2556 
z
" transform="scale(0.015625)"/>
      <path id="DejaVuSans-2f" d="M 1625 4666 
L 2156 4666 
L 531 -594 
L 0 -594 
L 1625 4666 
z
" transform="scale(0.015625)"/>
      <path id="DejaVuSans-20" transform="scale(0.015625)"/>
      <path id="DejaVuSans-66" d="M 2375 4863 
L 2375 4384 
L 1825 4384 
Q 1516 4384 1395 4259 
Q 1275 4134 1275 3809 
L 1275 3500 
L 2222 3500 
L 2222 3053 
L 1275 3053 
L 1275 0 
L 697 0 
L 697 3053 
L 147 3053 
L 147 3500 
L 697 3500 
L 697 3744 
Q 697 4328 969 4595 
Q 1241 4863 1831 4863 
L 2375 4863 
z
" transform="scale(0.015625)"/>
      <path id="DejaVuSans-6f" d="M 1959 3097 
Q 1497 3097 1228 2736 
Q 959 2375 959 1747 
Q 959 1119 1226 758 
Q 1494 397 1959 397 
Q 2419 397 2687 759 
Q 2956 1122 2956 1747 
Q 2956 2369 2687 2733 
Q 2419 3097 1959 3097 
z
M 1959 3584 
Q 2709 3584 3137 3096 
Q 3566 2609 3566 1747 
Q 3566 888 3137 398 
Q 2709 -91 1959 -91 
Q 1206 -91 779 398 
Q 353 888 353 1747 
Q 353 2609 779 3096 
Q 1206 3584 1959 3584 
z
" transform="scale(0.015625)"/>
      <path id="DejaVuSans-72" d="M 2631 2963 
Q 2534 3019 2420 3045 
Q 2306 3072 2169 3072 
Q 1681 3072 1420 2755 
Q 1159 2438 1159 1844 
L 1159 0 
L 581 0 
L 581 3500 
L 1159 3500 
L 1159 2956 
Q 1341 3275 1631 3429 
Q 1922 3584 2338 3584 
Q 2397 3584 2469 3576 
Q 2541 3569 2628 3553 
L 2631 2963 
z
" transform="scale(0.015625)"/>
      <path id="DejaVuSans-6c" d="M 603 4863 
L 1178 4863 
L 1178 0 
L 603 0 
L 603 4863 
z
" transform="scale(0.015625)"/>
      <path id="DejaVuSans-61" d="M 2194 1759 
Q 1497 1759 1228 1600 
Q 959 1441 959 1056 
Q 959 750 1161 570 
Q 1363 391 1709 391 
Q 2188 391 2477 730 
Q 2766 1069 2766 1631 
L 2766 1759 
L 2194 1759 
z
M 3341 1997 
L 3341 0 
L 2766 0 
L 2766 531 
Q 2569 213 2275 61 
Q 1981 -91 1556 -91 
Q 1019 -91 701 211 
Q 384 513 384 1019 
Q 384 1609 779 1909 
Q 1175 2209 1959 2209 
L 2766 2209 
L 2766 2266 
Q 2766 2663 2505 2880 
Q 2244 3097 1772 3097 
Q 1472 3097 1187 3025 
Q 903 2953 641 2809 
L 641 3341 
Q 956 3463 1253 3523 
Q 1550 3584 1831 3584 
Q 2591 3584 2966 3190 
Q 3341 2797 3341 1997 
z
" transform="scale(0.015625)"/>
      <path id="DejaVuSans-67" d="M 2906 1791 
Q 2906 2416 2648 2759 
Q 2391 3103 1925 3103 
Q 1463 3103 1205 2759 
Q 947 2416 947 1791 
Q 947 1169 1205 825 
Q 1463 481 1925 481 
Q 2391 481 2648 825 
Q 2906 1169 2906 1791 
z
M 3481 434 
Q 3481 -459 3084 -895 
Q 2688 -1331 1869 -1331 
Q 1566 -1331 1297 -1286 
Q 1028 -1241 775 -1147 
L 775 -588 
Q 1028 -725 1275 -790 
Q 1522 -856 1778 -856 
Q 2344 -856 2625 -561 
Q 2906 -266 2906 331 
L 2906 616 
Q 2728 306 2450 153 
Q 2172 0 1784 0 
Q 1141 0 747 490 
Q 353 981 353 1791 
Q 353 2603 747 3093 
Q 1141 3584 1784 3584 
Q 2172 3584 2450 3431 
Q 2728 3278 2906 2969 
L 2906 3500 
L 3481 3500 
L 3481 434 
z
" transform="scale(0.015625)"/>
      <path id="DejaVuSans-65" d="M 3597 1894 
L 3597 1613 
L 953 1613 
Q 991 1019 1311 708 
Q 1631 397 2203 397 
Q 2534 397 2845 478 
Q 3156 559 3463 722 
L 3463 178 
Q 3153 47 2828 -22 
Q 2503 -91 2169 -91 
Q 1331 -91 842 396 
Q 353 884 353 1716 
Q 353 2575 817 3079 
Q 1281 3584 2069 3584 
Q 2775 3584 3186 3129 
Q 3597 2675 3597 1894 
z
M 3022 2063 
Q 3016 2534 2758 2815 
Q 2500 3097 2075 3097 
Q 1594 3097 1305 2825 
Q 1016 2553 972 2059 
L 3022 2063 
z
" transform="scale(0.015625)"/>
     </defs>
     <use xlink:href="#DejaVuSans-Oblique-45" transform="translate(0 0.4375)"/>
     <use xlink:href="#DejaVuSans-31" transform="translate(63.183594 -15.96875) scale(0.7)"/>
     <use xlink:href="#DejaVuSans-28" transform="translate(110.454102 0.4375)"/>
     <use xlink:href="#DejaVuSans-Oblique-78" transform="translate(149.467773 0.4375)"/>
     <use xlink:href="#DejaVuSans-29" transform="translate(208.647461 0.4375)"/>
     <use xlink:href="#DejaVuSans-223c" transform="translate(267.143555 0.4375)"/>
     <use xlink:href="#DejaVuSans-Oblique-65" transform="translate(370.415039 0.4375)"/>
     <use xlink:href="#DejaVuSans-2212" transform="translate(436.588372 38.71875) scale(0.7)"/>
     <use xlink:href="#DejaVuSans-Oblique-78" transform="translate(495.240716 38.71875) scale(0.7)"/>
     <use xlink:href="#DejaVuSans-2f" transform="translate(539.400872 0.4375)"/>
     <use xlink:href="#DejaVuSans-Oblique-78" transform="translate(573.092279 0.4375)"/>
     <use xlink:href="#DejaVuSans-20" transform="translate(632.271966 0.4375)"/>
     <use xlink:href="#DejaVuSans-66" transform="translate(664.059076 0.4375)"/>
     <use xlink:href="#DejaVuSans-6f" transform="translate(699.264154 0.4375)"/>
     <use xlink:href="#DejaVuSans-72" transform="translate(760.445794 0.4375)"/>
     <use xlink:href="#DejaVuSans-20" transform="translate(801.559076 0.4375)"/>
     <use xlink:href="#DejaVuSans-6c" transform="translate(833.346185 0.4375)"/>
     <use xlink:href="#DejaVuSans-61" transform="translate(861.129388 0.4375)"/>
     <use xlink:href="#DejaVuSans-72" transform="translate(922.408685 0.4375)"/>
     <use xlink:href="#DejaVuSans-67" transform="translate(963.521966 0.4375)"/>
     <use xlink:href="#DejaVuSans-65" transform="translate(1026.998529 0.4375)"/>
     <use xlink:href="#DejaVuSans-20" transform="translate(1088.521966 0.4375)"/>
     <use xlink:href="#DejaVuSans-Oblique-78" transform="translate(1120.309076 0.4375)"/>
    </g>
   </g>
   <g id="legend_2">
    <g id="line2d_61">
     <path d="M 609.147358 37.948594 
L 618.147358 37.948594 
L 627.147358 37.948594 
" style="fill: none; stroke: #2a9d8f; stroke-width: 1.7; stroke-linecap: square"/>
    </g>
    <g id="text_34">
     <!-- $E_1(x)$ -->
     <g style="fill: #9aa0a6" transform="translate(634.347358 41.098594) scale(0.09 -0.09)">
      <use xlink:href="#DejaVuSans-Oblique-45" transform="translate(0 0.125)"/>
      <use xlink:href="#DejaVuSans-31" transform="translate(63.183594 -16.28125) scale(0.7)"/>
      <use xlink:href="#DejaVuSans-28" transform="translate(110.454102 0.125)"/>
      <use xlink:href="#DejaVuSans-Oblique-78" transform="translate(149.467773 0.125)"/>
      <use xlink:href="#DejaVuSans-29" transform="translate(208.647461 0.125)"/>
     </g>
    </g>
    <g id="line2d_62">
     <path d="M 609.147358 51.158906 
L 618.147358 51.158906 
L 627.147358 51.158906 
" style="fill: none; stroke-dasharray: 4.44,1.92; stroke-dashoffset: 0; stroke: #4a7fb5; stroke-width: 1.2"/>
    </g>
    <g id="text_35">
     <!-- $e^{-x}/x$ -->
     <g style="fill: #9aa0a6" transform="translate(634.347358 54.308906) scale(0.09 -0.09)">
      <use xlink:href="#DejaVuSans-Oblique-65" transform="translate(0 0.4375)"/>
      <use xlink:href="#DejaVuSans-2212" transform="translate(66.173333 38.71875) scale(0.7)"/>
      <use xlink:href="#DejaVuSans-Oblique-78" transform="translate(124.825677 38.71875) scale(0.7)"/>
      <use xlink:href="#DejaVuSans-2f" transform="translate(168.985833 0.4375)"/>
      <use xlink:href="#DejaVuSans-Oblique-78" transform="translate(202.67724 0.4375)"/>
     </g>
    </g>
   </g>
  </g>
 </g>
 <defs>
  <clipPath id="p824e41e6f9">
   <rect x="28.512813" y="26.16" width="299.516138" height="159.836364"/>
  </clipPath>
  <clipPath id="pb2972a4ef6">
   <rect x="366.511219" y="26.16" width="299.516138" height="159.836364"/>
  </clipPath>
 </defs>
</svg>
